<svg version="1.1" id="Layer_1" xmlns="http://www.w3.org/2000/svg" xmlns:xlink="http://www.w3.org/1999/xlink" x="0px" y="0px"
	 width="100%" viewBox="0 0 1024 1024" enable-background="new 0 0 1024 1024" xml:space="preserve">
<path fill="#000000" opacity="1.000000" stroke="none" 
	d="
M566.000000,1025.000000 
	C377.333344,1025.000000 189.166672,1025.000000 1.000000,1025.000000 
	C1.000000,683.666687 1.000000,342.333344 1.000000,1.000000 
	C342.333344,1.000000 683.666687,1.000000 1025.000000,1.000000 
	C1025.000000,342.333344 1025.000000,683.666687 1025.000000,1025.000000 
	C872.166687,1025.000000 719.333313,1025.000000 566.000000,1025.000000 
M308.987946,209.966278 
	C308.987946,209.966278 308.933868,209.941223 308.449036,210.393906 
	C306.303040,214.930450 304.157043,219.466980 301.752441,224.500717 
	C301.502075,225.000839 301.251740,225.500977 300.792114,226.694870 
	C295.461609,240.990845 289.262512,255.032410 284.985168,269.636841 
	C276.628571,298.169495 269.245605,326.990234 261.672180,355.747742 
	C258.984436,365.953613 256.685913,376.277649 254.664154,386.636414 
	C253.713928,391.505005 250.967407,393.593079 246.762192,395.760315 
	C234.688660,401.982819 222.439331,408.149414 211.330399,415.877869 
	C200.312454,423.543030 191.461441,433.936462 188.001785,447.390686 
	C183.011688,466.796661 194.460007,492.280334 211.844223,504.092926 
	C228.968292,515.728821 246.623749,526.331482 266.201813,533.111267 
	C284.206787,539.346252 302.458496,544.942444 320.807373,550.085510 
	C333.698151,553.698792 346.934235,556.079834 359.886810,559.055115 
	C359.886810,559.055115 359.888397,559.213135 359.888397,559.213135 
	C359.888397,559.213135 359.985657,558.980835 360.841095,559.022522 
	C368.561371,560.348938 376.281647,561.675354 383.804138,563.069336 
	C383.804138,563.069336 383.823486,563.347168 383.823486,563.347168 
	C383.823486,563.347168 383.997559,562.997559 384.811981,563.001648 
	C395.614960,564.182129 406.423798,565.311890 417.219330,566.556885 
	C428.901245,567.904053 440.538940,569.817383 452.255127,570.631042 
	C462.880493,571.368958 473.586365,571.095886 484.255280,571.031067 
	C514.642029,570.846436 545.052185,571.947021 575.393860,569.145996 
	C583.566467,568.391541 591.804688,568.346375 600.207764,568.279663 
	C600.424133,568.332642 600.640503,568.385620 600.856873,568.438660 
	C600.824585,568.339417 600.810852,568.167297 600.756775,568.153442 
	C600.500671,568.088074 600.233643,568.065918 600.663879,567.649658 
	C601.971313,567.454651 603.273376,567.208374 604.586975,567.072876 
	C614.953552,566.002930 625.385742,565.369141 635.675232,563.798767 
	C650.081909,561.600037 664.375305,558.665710 678.732239,556.131287 
	C685.868774,554.871460 693.193604,554.379211 700.158264,552.513123 
	C711.284790,549.531860 722.161682,545.628906 733.180298,542.232666 
	C762.390808,533.229248 790.530334,522.047546 814.713562,502.680420 
	C817.406128,500.524078 820.868958,499.031830 822.890564,496.399170 
	C826.772278,491.344238 830.607239,486.011230 833.137817,480.215607 
	C837.291321,470.703247 841.396851,461.174042 838.156189,449.985474 
	C833.470703,433.808868 824.146667,421.100586 810.600159,411.840027 
	C802.375366,406.217407 793.213440,401.419312 783.802979,398.220367 
	C772.877930,394.506622 767.191406,388.186188 767.016357,376.780426 
	C767.013977,376.623932 766.890686,376.473022 766.849426,376.312897 
	C760.961609,353.463501 755.261353,330.563812 749.143494,307.776215 
	C741.684570,279.993835 733.686890,252.368027 721.994995,225.996750 
	C721.994995,225.996750 722.018677,226.000381 721.766602,225.548279 
	C721.514648,225.313202 721.262695,225.078140 720.926147,224.233261 
	C720.601562,223.485397 720.277039,222.737518 719.920898,221.358871 
	C718.643188,218.887909 717.365417,216.416962 716.088440,213.927216 
	C716.088440,213.927216 716.102356,213.913330 715.970459,213.210281 
	C712.665710,207.416565 709.360962,201.622849 706.083313,195.322372 
	C700.347534,188.553345 696.819397,179.935074 688.614258,175.203644 
	C685.412415,173.357361 682.858337,170.424484 679.800354,168.285080 
	C671.697388,162.616119 662.338135,159.834671 653.188965,156.937698 
	C653.188965,156.937698 653.168213,156.678116 653.168213,156.678116 
	C653.168213,156.678116 652.983337,156.979202 652.272522,156.899826 
	C650.382751,155.896164 648.440125,154.979706 646.612732,153.872986 
	C640.400146,150.110367 634.559204,145.533447 627.977966,142.618530 
	C609.314941,134.352493 589.997498,132.112961 570.283508,138.920242 
	C566.507751,140.224030 563.343689,140.085419 559.968079,137.752487 
	C545.567749,127.800232 529.277710,123.280838 512.031311,123.147865 
	C495.120087,123.017487 479.268219,127.489235 465.148895,137.349457 
	C463.204224,138.707535 459.955536,139.875305 457.958221,139.204041 
	C446.548218,135.369370 434.879608,134.551071 422.960022,134.837372 
	C422.960022,134.837372 422.751587,134.841110 422.751587,134.841110 
	C422.751587,134.841110 422.987335,135.009338 422.321472,135.383881 
	C422.008881,135.494598 421.704559,135.657928 421.382507,135.708466 
	C405.718719,138.166855 391.214661,143.139023 379.484924,154.470932 
	C378.162140,155.748840 375.977356,156.511612 374.091156,156.767502 
	C362.649963,158.319702 352.369019,162.883789 343.056305,169.352814 
	C328.781586,179.268616 317.784729,192.212387 309.521545,208.238754 
	C309.326691,208.824905 309.131836,209.411057 308.987946,209.966278 
M598.338562,895.769958 
	C602.574890,899.867676 607.834290,897.575867 612.609985,897.867798 
	C618.841919,898.248901 621.420593,895.296265 621.329407,888.937195 
	C621.231812,882.134155 620.971985,875.330017 621.034485,868.528748 
	C621.222168,848.107056 621.564697,827.686890 621.780151,807.265320 
	C621.875671,798.210999 619.836914,796.263977 610.617859,796.222534 
	C608.125793,796.211365 605.562195,795.866211 603.163086,796.340393 
	C601.072021,796.753723 599.166565,798.105591 597.050049,799.963806 
	C597.003601,830.101562 596.941345,860.239380 596.954834,890.377136 
	C596.955505,891.972778 597.595581,893.568237 598.338562,895.769958 
M795.170227,876.976624 
	C790.741211,875.736938 786.058655,875.049744 781.930481,873.154663 
	C769.177734,867.300476 769.259827,867.121704 761.238159,878.591125 
	C756.907227,884.783325 757.339844,886.812134 764.106079,890.531372 
	C779.307312,898.886963 795.451721,901.360107 812.256897,897.033569 
	C822.401062,894.422058 830.949585,887.860413 834.130798,878.270630 
	C840.123718,860.205261 832.576294,847.320496 813.707153,839.692932 
	C806.200562,836.658691 798.345764,834.491577 790.806519,831.529968 
	C787.296204,830.150940 784.884766,827.011292 786.498840,823.131775 
	C788.066284,819.364441 791.267456,816.243774 795.662109,816.526306 
	C800.231262,816.820007 804.771240,818.076721 809.243225,819.226196 
	C813.380615,820.289673 818.264038,823.793213 821.263672,822.529724 
	C824.681580,821.090210 826.417969,815.587708 828.810974,811.804077 
	C831.768250,807.128479 831.561035,805.039001 826.664185,802.563538 
	C810.044861,794.162109 792.962891,791.436218 775.601562,800.313721 
	C766.435181,805.000732 761.642517,812.970764 761.010864,823.150391 
	C760.164307,836.792969 768.487183,847.943420 782.148621,852.364624 
	C790.182007,854.964417 798.337769,857.346252 806.057434,860.702454 
	C811.749084,863.177002 812.638428,869.923523 808.314514,873.940430 
	C804.920654,877.093384 800.809814,878.815247 796.159668,876.946899 
	C796.159668,876.946899 796.146545,876.728760 796.146545,876.728760 
	C796.146545,876.728760 795.995117,876.993958 795.170227,876.976624 
M191.945770,817.710388 
	C191.945770,817.710388 191.574310,817.764648 191.574310,817.764648 
	C191.574310,817.764648 191.877350,818.105164 191.911499,819.016846 
	C191.918076,821.015747 192.050095,823.023438 191.910629,825.012085 
	C191.068008,837.027832 196.410660,845.292664 207.413757,849.660400 
	C216.183899,853.141846 225.200699,856.000000 234.094025,859.173950 
	C239.378433,861.059937 242.388733,864.618286 241.851715,868.818481 
	C241.220245,873.757568 237.886139,876.970398 233.222366,877.012207 
	C227.830200,877.060608 222.189987,876.359558 217.089188,874.675903 
	C211.613586,872.868652 206.639572,869.541748 201.251312,866.777771 
	C198.099609,870.730652 194.909286,874.776306 191.670853,878.783081 
	C187.016129,884.542114 186.975540,885.092529 193.248596,889.298523 
	C202.577988,895.553894 213.164032,898.175171 224.190979,898.907959 
	C237.385147,899.784790 249.980560,897.947754 259.240479,887.252380 
	C272.528900,871.903931 268.407959,852.142700 251.106842,843.193542 
	C242.970306,838.984985 233.741592,836.916931 225.089035,833.662903 
	C221.551559,832.332520 218.118439,830.770203 217.447113,826.110962 
	C216.702118,820.940613 224.822433,814.748779 229.944824,816.481567 
	C235.578690,818.387329 241.399750,819.829407 246.852997,822.147034 
	C250.355469,823.635559 252.462723,823.216675 254.318649,820.056580 
	C256.004669,817.185974 257.823364,814.393311 259.583984,811.566589 
	C262.900696,806.241455 262.803314,806.011780 257.472015,802.707214 
	C246.861908,796.130981 235.081726,794.900269 222.791229,794.750793 
	C222.575912,794.752869 222.360596,794.754944 222.145279,794.756958 
	C222.436691,794.831787 222.728104,794.906616 222.353409,795.353699 
	C208.155319,797.360535 197.019165,803.477600 191.945770,817.710388 
M421.983032,875.655701 
	C421.983032,875.655701 421.601959,875.731262 421.601959,875.731262 
	C421.601959,875.731262 421.908142,876.078308 421.264526,876.449524 
	C412.997498,877.501526 403.617950,874.708008 401.639465,868.842346 
	C400.448944,865.312622 399.817963,861.594055 399.285431,857.222717 
	C399.472076,856.419006 399.818665,855.615967 399.821838,854.811523 
	C399.890137,837.415710 399.959106,820.019592 399.872131,802.624268 
	C399.866180,801.431824 398.638214,800.245605 397.639465,798.580444 
	C396.165558,797.787537 394.743195,796.458069 393.207336,796.310669 
	C389.745422,795.978271 386.221405,796.105225 382.733307,796.270630 
	C374.760345,796.648499 373.965302,797.513062 373.957550,805.443420 
	C373.939758,823.586975 374.199554,841.736084 373.797028,859.870789 
	C373.672791,865.467468 374.860931,870.511658 376.697632,875.551147 
	C379.430695,883.049988 384.353760,888.714172 391.531464,892.319946 
	C403.594391,898.379944 416.266602,900.952148 429.561401,897.825439 
	C445.472412,894.083435 457.115540,885.536011 460.065155,868.300049 
	C460.672638,864.750305 460.945251,861.103760 460.964203,857.499634 
	C461.057037,839.855835 461.035950,822.211365 461.003662,804.567200 
	C460.990631,797.445374 459.708496,796.235962 452.512573,796.204529 
	C449.350037,796.190735 446.183594,796.114075 443.025726,796.238953 
	C438.525024,796.416870 435.155029,799.655701 435.190155,804.148010 
	C435.331970,822.275940 435.618378,840.402771 435.867371,858.529785 
	C435.971802,866.134094 432.434418,875.790039 421.983032,875.655701 
M747.055420,851.130249 
	C747.055420,851.130249 747.239075,851.124329 747.239075,851.124329 
	C747.239075,851.124329 746.984192,851.012817 746.987976,850.162781 
	C746.350281,844.462524 746.068298,838.694824 745.002502,833.075745 
	C742.601318,820.416077 734.905212,810.715271 724.706604,803.925659 
	C711.880615,795.386902 697.062744,792.716431 681.792480,796.003418 
	C667.029114,799.181335 655.014099,806.684204 647.011475,820.019775 
	C640.469727,830.921021 638.976196,842.680908 639.884583,855.047668 
	C639.884583,855.047668 639.860535,855.211304 639.860535,855.211304 
	C639.860535,855.211304 639.982239,854.974243 640.384460,855.598938 
	C641.595703,860.069885 642.806946,864.540833 643.976379,869.047363 
	C643.976379,869.047363 643.989075,868.981506 644.471802,869.455383 
	C656.008423,892.164551 680.861633,902.513123 703.836914,897.989502 
	C723.624939,894.093506 736.958008,882.708313 743.832153,863.852966 
	C745.336548,859.726501 745.973389,855.283691 747.055420,851.130249 
M532.124207,798.007568 
	C527.275818,797.378235 522.440430,796.373047 517.576050,796.203918 
	C509.423096,795.920593 501.251648,796.164062 493.088013,796.197144 
	C484.628082,796.231445 482.980194,797.866455 482.975647,806.468201 
	C482.961243,833.625122 482.973846,860.782043 482.994507,887.938965 
	C483.000183,895.411499 485.393341,898.172119 492.776245,897.841003 
	C504.880188,897.298218 517.095032,899.742249 529.108643,896.138977 
	C535.283264,894.286987 541.872681,893.750488 547.959900,891.689697 
	C558.225281,888.214539 566.729431,881.583313 571.889404,872.229675 
	C576.695679,863.517273 578.084595,853.604797 577.213135,843.361755 
	C575.670349,825.225647 567.342712,811.817139 550.858154,804.025146 
	C545.208496,801.354614 538.955139,799.961304 533.120728,797.941345 
	C533.120728,797.941345 533.122009,797.769653 533.122009,797.769653 
	C533.122009,797.769653 533.018982,798.025513 532.124207,798.007568 
M295.043152,762.089600 
	C295.043152,762.089600 294.973755,762.017212 295.641113,761.608704 
	C296.783020,761.416321 297.923920,761.217834 299.066956,761.032410 
	C316.664795,758.176880 332.554688,751.939575 340.988525,735.027832 
	C344.975403,727.033264 348.483856,717.856934 348.739716,709.114563 
	C349.655334,677.828552 349.101654,646.499146 349.066620,615.186157 
	C349.059814,609.093933 347.145630,607.122498 340.983185,607.030334 
	C333.323181,606.915833 325.658630,606.920410 317.998718,607.042603 
	C311.411438,607.147705 309.971619,608.753174 309.953918,615.542908 
	C309.930847,624.370544 310.091339,633.200928 309.926941,642.025574 
	C309.522247,663.751892 308.305847,685.488647 308.729065,707.195679 
	C309.001953,721.192200 297.669830,728.623108 286.859344,727.930359 
	C276.313446,727.254639 267.916260,723.026550 262.904846,713.418579 
	C260.796722,709.376770 258.254333,708.144165 254.101593,710.390320 
	C247.664276,713.872131 241.160736,717.232910 234.653793,720.583984 
	C229.832535,723.066895 228.393265,725.830933 231.382980,730.085632 
	C235.837448,736.424927 240.458725,742.978394 246.275345,747.963074 
	C260.203369,759.898865 277.378448,762.112854 295.043152,762.089600 
M443.502197,725.919678 
	C439.003143,725.912659 434.503510,725.856445 430.005249,725.913025 
	C425.796082,725.965942 423.934448,723.917542 424.009491,719.772034 
	C424.090942,715.274231 423.984039,710.773193 424.037994,706.274597 
	C424.113922,699.942200 424.926819,699.118469 431.366791,699.104309 
	C447.197693,699.069519 463.028778,699.120300 478.859680,699.081970 
	C485.029724,699.067078 486.072083,697.976318 486.123871,691.717590 
	C486.166595,686.552063 486.127625,681.385925 486.111481,676.220032 
	C486.087921,668.675842 485.380554,667.946350 477.783997,667.935486 
	C462.119690,667.913147 446.455231,667.957886 430.791046,667.909180 
	C425.071564,667.891418 424.116821,666.891479 424.029266,661.163940 
	C423.965546,656.998840 423.994904,652.831848 424.025146,648.666016 
	C424.076782,641.554260 424.650085,640.980164 431.770050,640.976807 
	C449.267365,640.968506 466.764709,641.003967 484.261871,640.954468 
	C486.745270,640.947449 489.238037,640.647217 491.707947,640.335815 
	C495.480469,639.860107 497.148926,637.641418 497.085846,633.833618 
	C496.986511,627.836182 497.078979,621.835754 497.059052,615.836731 
	C497.036591,609.074524 495.217438,607.033081 488.581268,607.020508 
	C456.752838,606.960022 424.924133,606.956665 393.095734,607.025330 
	C386.864227,607.038757 384.942261,609.040344 384.938354,615.095642 
	C384.908905,660.755249 384.908051,706.414795 384.930969,752.074402 
	C384.933777,757.668335 386.199829,759.020874 391.606140,759.028015 
	C424.934265,759.071777 458.262543,759.021057 491.590576,759.094238 
	C496.331329,759.104675 498.187653,756.943176 498.097137,752.382202 
	C497.978119,746.385620 498.114838,740.384399 498.077545,734.385620 
	C498.033936,727.369812 496.637024,725.963501 489.494507,725.941956 
	C474.496857,725.896729 459.498993,725.922302 443.502197,725.919678 
M729.500000,667.920410 
	C723.501343,667.919861 717.501526,667.992126 711.504395,667.896362 
	C706.435669,667.815430 704.206421,665.596191 704.081116,660.601562 
	C703.984985,656.771667 704.026001,652.936951 704.072998,649.105225 
	C704.143677,643.339478 706.459900,640.988342 712.094238,640.983826 
	C729.394287,640.969971 746.694336,640.986511 763.994385,640.980896 
	C765.826294,640.980286 767.669067,641.025146 769.488159,640.852112 
	C775.695190,640.261841 777.981201,637.737305 778.023132,631.487549 
	C778.056702,626.489258 777.898315,621.486511 778.057739,616.493103 
	C778.255310,610.304504 775.621277,607.072693 769.362305,607.055359 
	C737.537415,606.967224 705.712097,606.977356 673.887085,607.044922 
	C667.963074,607.057556 665.961121,609.105469 665.956970,614.805054 
	C665.923523,660.626587 665.919250,706.448059 665.954285,752.269592 
	C665.958557,757.856201 667.159363,759.025940 672.780823,759.032959 
	C705.605469,759.073914 738.430176,759.013184 771.254578,759.112244 
	C775.972473,759.126465 777.987610,757.018616 778.003845,752.539062 
	C778.023804,747.040588 778.042786,741.542053 778.046814,736.043579 
	C778.053467,726.948608 777.075867,725.940369 768.116394,725.932068 
	C749.287903,725.914734 730.459290,725.954163 711.630981,725.890930 
	C706.002258,725.872070 704.187195,723.972412 704.082642,718.370300 
	C704.017395,714.872437 704.049194,711.372314 704.065430,707.873291 
	C704.100952,700.214783 705.149902,699.123474 712.650818,699.110474 
	C727.813599,699.084167 742.976501,699.132263 758.138977,699.063232 
	C763.860046,699.037231 764.978333,697.932922 765.069275,692.399475 
	C765.167786,686.402771 764.953796,680.399048 765.136353,674.406311 
	C765.281860,669.628601 763.061096,667.845520 758.492249,667.900208 
	C749.162781,668.011902 739.830872,667.924255 729.500000,667.920410 
M570.051575,637.500000 
	C570.054810,630.002197 570.086975,622.504272 570.052368,615.006653 
	C570.023560,608.761230 568.374146,607.095459 561.976746,607.027100 
	C554.646484,606.948792 547.314758,607.016602 539.983704,607.002869 
	C531.725708,606.987366 530.918823,607.835144 530.912292,616.170593 
	C530.876831,661.653015 530.841736,707.135437 530.735901,752.617737 
	C530.725647,757.026428 532.595398,759.076233 536.988770,759.072327 
	C568.145813,759.044617 599.302856,759.022095 630.459778,759.081116 
	C634.494141,759.088745 636.212585,757.414673 636.136475,753.390869 
	C636.010315,746.728577 636.120911,740.062195 636.089233,733.397705 
	C636.053711,725.940674 635.202209,725.054688 627.765991,725.034607 
	C611.271484,724.990051 594.776794,725.014343 578.282227,724.982788 
	C572.965393,724.972595 570.087402,722.164917 570.082581,716.975769 
	C570.058228,690.817200 570.058533,664.658569 570.051575,637.500000 
M303.781464,819.393860 
	C304.512024,821.601135 305.860168,823.803650 305.877289,826.016418 
	C306.042267,847.338013 305.964630,868.661255 305.999329,889.984070 
	C306.009857,896.464844 307.457123,897.877136 313.979980,897.936584 
	C318.143707,897.974548 322.308441,897.913208 326.472321,897.862305 
	C326.702515,897.859436 326.928925,897.544250 327.153992,897.362244 
	C326.443024,897.082214 325.732056,896.802124 323.506775,895.925537 
	C329.681061,896.646729 330.079224,893.646362 330.074371,890.103210 
	C330.044830,868.447266 330.171051,846.790588 330.018738,825.135864 
	C329.986786,820.592834 331.550079,818.793091 336.102814,818.980286 
	C341.589722,819.205750 347.112946,819.251160 352.580444,818.841064 
	C354.356476,818.707886 357.362610,817.030457 357.480316,815.831116 
	C357.996338,810.572632 357.927521,805.205933 357.444427,799.935913 
	C357.323334,798.614563 354.964447,796.650757 353.480682,796.500977 
	C351.267456,796.277588 348.921417,797.864075 346.626221,797.880249 
	C328.136292,798.010681 309.644135,797.839844 291.154480,797.988586 
	C275.571533,798.113953 277.007812,795.028625 277.035767,812.434509 
	C277.044739,818.016357 278.108551,818.942627 283.936157,819.016357 
	C290.263733,819.096375 296.591980,819.120361 303.781464,819.393860 
M665.000000,662.500000 
	C665.000000,646.100769 665.000000,629.701477 665.000000,613.302246 
	C664.758728,613.305725 664.517517,613.309204 664.276245,613.312683 
	C664.276245,659.498108 664.276245,705.683594 664.276245,751.869019 
	C664.517822,751.869324 664.759399,751.869690 665.000977,751.869995 
	C665.000977,722.413330 665.000977,692.956665 665.000000,662.500000 
M488.068604,690.833740 
	C488.068604,684.920044 488.068604,679.006409 488.068604,673.092712 
	C487.782257,673.107117 487.495880,673.121582 487.209534,673.135986 
	C487.209534,680.085876 487.209534,687.035828 487.209534,693.985718 
	C487.427551,693.989807 487.645538,693.993896 487.863556,693.997986 
	C487.930237,693.203918 487.996918,692.409790 488.068604,690.833740 
z"/>
<path fill="#401A0F" opacity="1.000000" stroke="none" 
	d="
M722.014954,225.972733 
	C733.686890,252.368027 741.684570,279.993835 749.143494,307.776215 
	C755.261353,330.563812 760.961609,353.463501 766.849426,376.312897 
	C766.890686,376.473022 767.013977,376.623932 767.016357,376.780426 
	C767.191406,388.186188 772.877930,394.506622 783.802979,398.220367 
	C793.213440,401.419312 802.375366,406.217407 810.600159,411.840027 
	C824.146667,421.100586 833.470703,433.808868 838.156189,449.985474 
	C841.396851,461.174042 837.291321,470.703247 833.137817,480.215607 
	C830.607239,486.011230 826.772278,491.344238 822.890564,496.399170 
	C820.868958,499.031830 817.406128,500.524078 814.713562,502.680420 
	C790.530334,522.047546 762.390808,533.229248 733.180298,542.232666 
	C722.161682,545.628906 711.284790,549.531860 700.158264,552.513123 
	C693.193604,554.379211 685.868774,554.871460 678.732239,556.131287 
	C664.375305,558.665710 650.081909,561.600037 635.675232,563.798767 
	C625.385742,565.369141 614.953552,566.002930 604.586975,567.072876 
	C603.273376,567.208374 601.971313,567.454651 600.328857,567.826538 
	C599.993774,568.003418 600.012756,567.975586 600.012756,567.975586 
	C591.804688,568.346375 583.566467,568.391541 575.393860,569.145996 
	C545.052185,571.947021 514.642029,570.846436 484.255280,571.031067 
	C473.586365,571.095886 462.880493,571.368958 452.255127,570.631042 
	C440.538940,569.817383 428.901245,567.904053 417.219330,566.556885 
	C406.423798,565.311890 395.614960,564.182129 384.406006,563.000854 
	C384.000000,563.000000 384.001923,563.001709 384.001923,563.001709 
	C376.281647,561.675354 368.561371,560.348938 360.420197,559.010315 
	C359.999298,558.998108 360.016144,559.011108 360.016144,559.011108 
	C346.934235,556.079834 333.698151,553.698792 320.807373,550.085510 
	C302.458496,544.942444 284.206787,539.346252 266.201813,533.111267 
	C246.623749,526.331482 228.968292,515.728821 211.844223,504.092926 
	C194.460007,492.280334 183.011688,466.796661 188.001785,447.390686 
	C191.461441,433.936462 200.312454,423.543030 211.330399,415.877869 
	C222.439331,408.149414 234.688660,401.982819 246.762192,395.760315 
	C250.967407,393.593079 253.713928,391.505005 254.664154,386.636414 
	C256.685913,376.277649 258.984436,365.953613 261.672180,355.747742 
	C269.245605,326.990234 276.628571,298.169495 284.985168,269.636841 
	C289.262512,255.032410 295.461609,240.990845 301.098663,226.628937 
	C302.541962,229.450150 304.910492,232.502853 304.549469,235.188614 
	C303.875793,240.199615 306.340088,242.210541 309.854614,244.333328 
	C307.957520,249.685959 306.099701,254.672653 304.452515,259.727966 
	C286.698456,314.216644 272.384796,369.606903 261.347687,425.832642 
	C260.348145,430.924500 259.980164,436.559509 261.063385,441.564758 
	C264.735718,458.533417 289.888458,473.814423 306.779602,469.739227 
	C308.047638,469.433289 309.564789,467.436523 309.809357,466.025269 
	C312.902069,448.178101 315.304901,430.199524 318.824615,412.440918 
	C324.612854,383.236664 330.846130,354.114105 337.378387,325.066528 
	C340.657288,310.485748 345.008301,296.146118 348.980682,282.047485 
	C352.083313,286.565979 355.660370,289.809479 361.120789,290.387787 
	C359.871368,295.467102 358.655243,300.135864 357.465271,304.811279 
	C344.030914,357.594666 333.408142,410.963501 324.344513,464.650269 
	C322.610199,474.923187 325.793945,483.657135 334.882141,489.199554 
	C360.059326,504.553894 386.798279,506.567169 414.532959,497.442108 
	C416.030670,496.949371 417.658569,494.387390 417.813995,492.661469 
	C419.349884,475.608673 420.477875,458.519653 421.935760,441.459198 
	C423.903046,418.437622 425.776550,395.402252 428.210480,372.427948 
	C430.837860,347.628082 433.726532,322.844635 437.161499,298.145874 
	C439.127930,284.006470 442.408081,270.049835 445.370667,256.203857 
	C447.912506,258.202759 450.180420,260.008728 451.683319,261.205505 
	C454.681824,259.675476 457.297913,258.340546 459.859497,257.384247 
	C458.868591,261.301971 457.602295,264.790375 457.049042,268.388367 
	C453.309906,292.706146 449.468903,317.012939 446.174408,341.392700 
	C444.015961,357.365662 442.616913,373.445129 441.063843,389.494904 
	C439.415009,406.534729 437.851105,423.585205 436.499054,440.650696 
	C435.146790,457.719177 433.993103,474.805573 432.982880,491.897736 
	C432.633484,497.809235 435.565674,502.364258 440.286041,505.853027 
	C450.504913,513.405640 462.503113,516.377869 474.588562,518.807739 
	C496.650543,523.243469 518.961121,523.119507 541.194885,520.625488 
	C554.954834,519.081909 568.318176,515.668396 580.518250,508.483826 
	C589.748169,503.048370 592.969177,495.223480 591.789001,484.950745 
	C591.030396,478.348633 590.594299,471.709015 590.039307,465.084045 
	C588.276978,444.046692 586.771240,422.984283 584.706848,401.976746 
	C582.382629,378.325134 579.926636,354.674408 576.842163,331.113068 
	C574.124023,310.350342 570.461121,289.711304 567.536621,268.945160 
	C568.480591,268.190369 569.398193,267.609131 569.672974,266.807587 
	C570.661682,263.923218 571.433472,260.964508 572.483582,257.359741 
	C569.256104,252.510574 569.759155,250.175522 575.992126,245.373901 
	C577.094482,248.731796 578.239014,251.687424 579.091248,254.725082 
	C586.902893,282.571228 589.472351,311.293274 592.896851,339.840485 
	C595.787048,363.933899 597.913086,388.122833 600.127136,412.292419 
	C602.522705,438.444000 604.758484,464.612366 606.734314,490.798279 
	C607.070740,495.256958 608.725708,497.283844 612.793091,498.523132 
	C636.125183,505.632141 658.897461,504.058350 680.908691,493.822876 
	C686.046692,491.433655 691.032898,487.890381 694.886902,483.757233 
	C701.027100,477.172211 700.214844,468.584656 698.620605,460.504089 
	C688.894409,411.203888 679.155212,361.904755 669.015686,312.688599 
	C665.929871,297.710663 661.564575,282.996277 658.126282,268.032867 
	C659.065430,266.234192 659.896362,264.605133 660.201660,262.882874 
	C660.566345,260.825775 660.481201,258.688965 660.636047,255.722641 
	C663.429199,257.551270 665.047852,258.610962 666.666565,259.670685 
	C667.020020,259.397003 667.373474,259.123291 667.726990,258.849579 
	C667.235718,257.205322 666.586304,255.586456 666.316528,253.906616 
	C666.170227,252.995850 666.670837,251.981201 667.075806,251.316315 
	C669.173462,256.753326 671.371277,261.799316 672.929443,267.035645 
	C684.908020,307.291168 693.255859,348.393768 700.933838,389.627075 
	C705.682373,415.128784 709.759949,440.756165 714.029602,466.345337 
	C714.546631,469.444366 716.363586,469.984589 718.931519,470.026245 
	C727.558716,470.166107 735.736572,468.439423 743.624084,464.847412 
	C757.936096,458.329651 764.744080,447.385010 762.945374,431.759338 
	C761.959290,423.193146 760.399658,414.616180 758.207947,406.278229 
	C745.644287,358.481476 732.813538,310.754944 720.515381,263.002960 
	C721.456116,263.000702 722.002747,263.134552 722.445862,262.977051 
	C724.880310,262.111664 728.421692,261.842804 729.444824,260.108063 
	C731.026794,257.425629 729.529236,254.741013 726.939819,252.009644 
	C723.281494,248.150787 718.872070,243.894958 719.845337,237.515717 
	C720.435486,233.647751 721.283020,229.819061 722.014954,225.972733 
M302.596802,484.980011 
	C294.487427,483.266388 285.942993,482.640076 278.361816,479.606445 
	C263.847351,473.798431 252.505051,463.930176 247.130814,448.608978 
	C243.913345,439.436462 245.974701,430.195831 247.474930,421.005127 
	C247.911713,418.329376 248.190186,415.627838 248.584991,412.602844 
	C247.106186,412.667572 246.385895,412.507416 245.848160,412.750702 
	C233.340729,418.409424 221.296463,424.811584 212.178787,435.453918 
	C200.069382,449.588257 199.184387,466.339081 210.929886,479.958527 
	C216.905960,486.888062 224.135849,493.118073 231.796707,498.143250 
	C257.712280,515.142700 286.653442,525.105164 316.431061,532.962097 
	C367.533173,546.445618 419.681396,552.786987 472.320282,554.693542 
	C500.580322,555.717102 528.928772,554.554932 557.231873,554.065308 
	C589.217407,553.512024 620.973206,550.165710 652.510803,544.923706 
	C692.023865,538.356018 730.926453,529.416931 767.658936,512.880615 
	C784.271057,505.402100 800.442078,496.943024 812.521606,482.805756 
	C826.006714,467.023438 827.360291,450.831512 812.192627,434.647675 
	C803.343628,425.205750 792.327820,419.103729 780.947998,413.500549 
	C779.601685,412.837646 777.855957,412.986176 776.295349,412.758575 
	C776.098633,414.453766 775.703125,416.155853 775.761780,417.842163 
	C775.818909,419.484619 776.293152,421.121887 776.665710,422.742676 
	C781.640564,444.380890 775.735107,461.850128 756.920044,474.391541 
	C744.981689,482.349213 731.668884,485.247314 717.534729,485.009705 
	C714.387024,484.956787 711.941895,485.400665 709.900757,488.415039 
	C704.402649,496.534973 697.246765,502.991577 688.315674,507.214691 
	C661.518860,519.885864 633.947693,521.661804 605.709717,512.717834 
	C602.589111,511.729431 599.726746,510.606049 597.006287,513.521606 
	C589.242432,521.842407 579.218811,526.317017 568.632874,529.565491 
	C534.074890,540.170166 499.157043,540.506653 464.103180,532.409180 
	C451.373505,529.468628 438.926971,525.200867 429.084717,516.262024 
	C424.558807,512.151550 420.670044,511.603088 415.186829,513.238525 
	C386.806427,521.703186 359.109924,519.893616 332.918518,505.714355 
	C326.394867,502.182617 320.341888,496.811829 315.767242,490.961212 
	C312.206573,486.407532 308.999023,484.188416 302.596802,484.980011 
z"/>
<path fill="#3B170E" opacity="1.000000" stroke="none" 
	d="
M666.879639,251.013428 
	C666.670837,251.981201 666.170227,252.995850 666.316528,253.906616 
	C666.586304,255.586456 667.235718,257.205322 667.726990,258.849579 
	C667.373474,259.123291 667.020020,259.397003 666.666565,259.670685 
	C665.047852,258.610962 663.429199,257.551270 660.636047,255.722641 
	C660.481201,258.688965 660.566345,260.825775 660.201660,262.882874 
	C659.896362,264.605133 659.065430,266.234192 658.148560,267.983429 
	C657.829834,268.062317 657.934631,268.046021 657.932312,267.697174 
	C657.315308,266.240326 656.700623,265.132355 655.936829,263.688721 
	C653.498352,257.651215 651.428955,251.848877 648.879150,246.265976 
	C640.607544,228.154831 629.400452,212.578308 610.440796,204.306396 
	C592.404297,196.437256 574.513977,195.572464 557.038452,206.214615 
	C553.544189,208.342529 553.353821,209.920776 556.316895,212.954590 
	C564.502747,221.335831 571.196533,230.782593 574.807922,242.219437 
	C574.759460,242.575684 574.828003,242.794403 575.121887,243.230225 
	C575.473328,243.984634 575.686035,244.497147 575.898743,245.009659 
	C569.759155,250.175522 569.256104,252.510574 572.483582,257.359741 
	C571.433472,260.964508 570.661682,263.923218 569.672974,266.807587 
	C569.398193,267.609131 568.480591,268.190369 567.486816,268.677917 
	C567.101990,268.302643 567.088135,268.122131 567.236877,267.624634 
	C567.281555,262.920593 568.095581,258.271667 563.970093,255.004807 
	C563.993408,254.992630 563.977356,255.042847 563.946716,254.714325 
	C563.579712,253.589935 563.243286,252.794098 562.678040,251.740387 
	C559.781006,245.950500 557.340210,240.294540 554.405396,234.907776 
	C541.383362,211.006210 511.476532,202.158188 488.597687,217.624054 
	C483.134369,221.317200 478.249542,225.866043 472.796936,230.163940 
	C472.012878,231.256241 471.530518,232.205933 470.932617,233.475250 
	C468.876404,237.197296 466.935822,240.599716 464.815002,244.204498 
	C464.435120,244.710693 464.235413,245.014557 464.004425,245.674866 
	C462.620087,249.689423 461.267059,253.347519 459.914032,257.005615 
	C457.297913,258.340546 454.681824,259.675476 451.683319,261.205505 
	C450.180420,260.008728 447.912506,258.202759 445.397461,255.887909 
	C445.433258,254.586166 445.716156,253.793335 446.063049,252.890991 
	C446.220276,252.536469 446.206757,252.295212 446.191223,251.720978 
	C447.199768,248.920532 448.103546,246.456802 449.173828,243.762253 
	C449.553528,243.005661 449.766693,242.479889 449.978027,241.980743 
	C449.976227,242.007355 449.943359,241.965225 450.292908,242.009415 
	C452.468811,242.402328 454.295166,242.751053 456.121521,243.099777 
	C456.232574,242.735107 456.343597,242.370438 456.454651,242.005768 
	C454.980682,240.345078 453.506714,238.684387 452.088989,236.746750 
	C452.416962,235.979492 452.688660,235.489182 453.149719,234.794464 
	C453.547485,234.279678 453.755920,233.969299 453.951294,233.498642 
	C453.938202,233.338364 453.978668,233.019333 454.161713,232.832855 
	C454.557739,232.369766 454.770721,232.093155 455.028687,231.562180 
	C455.329926,230.869995 455.586151,230.432175 456.040497,229.769806 
	C456.486938,229.005920 456.735229,228.466583 457.112915,227.660889 
	C457.811310,226.595993 458.380341,225.797470 459.137421,224.829956 
	C459.549194,224.408646 459.772949,224.156326 460.149048,223.607437 
	C462.896423,220.298660 465.513092,217.304749 468.081299,214.269806 
	C471.701599,209.991455 471.596680,209.222336 467.041229,206.323914 
	C442.726776,190.853821 410.028564,199.604553 391.286682,223.037476 
	C384.331238,231.733810 379.702881,242.291321 373.842407,252.231110 
	C373.451111,252.990540 373.230682,253.518906 372.988312,254.293427 
	C372.966370,254.539566 372.898102,255.029068 372.613373,255.198700 
	C371.892395,256.602051 371.456116,257.835785 370.999023,259.309143 
	C370.978149,259.548767 370.908936,260.024811 370.619934,260.172119 
	C368.689514,262.618713 363.755066,263.921753 367.976868,268.381775 
	C366.941711,271.854645 365.936066,274.949371 364.873230,278.140533 
	C364.729980,278.450226 364.730225,278.665070 364.697571,279.230042 
	C363.440979,283.045868 362.303619,286.513092 361.166260,289.980347 
	C355.660370,289.809479 352.083313,286.565979 349.006683,281.693298 
	C349.608398,278.668640 350.290283,276.348236 351.158905,273.789276 
	C351.551727,273.202026 351.757874,272.853363 351.920715,272.176422 
	C352.204315,270.585999 352.531250,269.323822 353.157440,267.901520 
	C353.670837,266.186707 353.884979,264.632050 354.205292,262.720886 
	C357.546051,254.238480 360.780670,246.112549 364.193848,237.790344 
	C364.571533,237.299057 364.770660,237.004044 364.966736,236.527969 
	C364.963654,236.346924 365.013641,235.988281 365.192261,235.794342 
	C365.571442,235.309235 365.772034,235.018051 366.045197,234.389877 
	C371.782410,225.956711 377.166199,217.644516 383.183655,209.819656 
	C390.508270,200.295029 400.156464,193.581772 411.105469,188.675095 
	C413.976501,187.388489 414.885101,185.214569 412.150116,182.901306 
	C403.487915,175.574921 393.455444,170.748520 382.099274,171.437775 
	C362.020386,172.656433 346.158173,182.474289 334.215546,198.400055 
	C329.062103,205.272293 324.787720,212.803741 319.763794,220.043671 
	C315.659912,220.351852 316.207550,222.031799 318.053406,224.512115 
	C315.334351,231.253601 312.663025,237.626434 309.991669,243.999252 
	C306.340088,242.210541 303.875793,240.199615 304.549469,235.188614 
	C304.910492,232.502853 302.541962,229.450150 301.203308,226.282074 
	C301.251740,225.500977 301.502075,225.000839 302.188354,224.362457 
	C304.140747,223.855743 306.894226,223.665253 306.976898,223.090500 
	C307.607544,218.707535 312.673492,214.911636 308.933868,209.941223 
	C308.933868,209.941223 308.987946,209.966278 309.143372,209.732269 
	C309.511292,208.922180 309.723785,208.346115 309.936249,207.770050 
	C317.784729,192.212387 328.781586,179.268616 343.056305,169.352814 
	C352.369019,162.883789 362.649963,158.319702 374.091156,156.767502 
	C375.977356,156.511612 378.162140,155.748840 379.484924,154.470932 
	C391.214661,143.139023 405.718719,138.166855 421.382507,135.708466 
	C421.704559,135.657928 422.008881,135.494598 422.660950,135.191528 
	C423.000397,134.999191 423.011230,134.985260 423.011230,134.985260 
	C434.879608,134.551071 446.548218,135.369370 457.958221,139.204041 
	C459.955536,139.875305 463.204224,138.707535 465.148895,137.349457 
	C479.268219,127.489235 495.120087,123.017487 512.031311,123.147865 
	C529.277710,123.280838 545.567749,127.800232 559.968079,137.752487 
	C563.343689,140.085419 566.507751,140.224030 570.283508,138.920242 
	C589.997498,132.112961 609.314941,134.352493 627.977966,142.618530 
	C634.559204,145.533447 640.400146,150.110367 646.612732,153.872986 
	C648.440125,154.979706 650.382751,155.896164 652.635376,156.948593 
	C652.998230,156.997360 653.014648,157.011200 653.014648,157.011200 
	C662.338135,159.834671 671.697388,162.616119 679.800354,168.285080 
	C682.858337,170.424484 685.412415,173.357361 688.614258,175.203644 
	C696.819397,179.935074 700.347534,188.553345 706.052185,196.005386 
	C705.262695,205.229279 709.513062,212.491440 716.102356,213.913330 
	C716.102356,213.913330 716.088440,213.927216 715.973450,214.269104 
	C715.020752,216.262451 714.182983,217.913895 713.004211,220.237610 
	C715.713989,220.920883 717.833252,221.455261 719.952515,221.989639 
	C720.277039,222.737518 720.601562,223.485397 721.120117,224.746124 
	C721.548889,225.506134 721.783752,225.753265 722.018677,226.000397 
	C722.018677,226.000381 721.994995,225.996750 722.005005,225.984741 
	C721.283020,229.819061 720.435486,233.647751 719.845337,237.515717 
	C718.872070,243.894958 723.281494,248.150787 726.939819,252.009644 
	C729.529236,254.741013 731.026794,257.425629 729.444824,260.108063 
	C728.421692,261.842804 724.880310,262.111664 722.445862,262.977051 
	C722.002747,263.134552 721.456116,263.000702 720.386841,262.706177 
	C719.568909,261.592194 719.321411,260.773315 719.254272,259.744843 
	C718.939819,258.353149 718.445068,257.171051 717.781616,255.686829 
	C717.068726,253.619415 716.524475,251.854095 715.906677,249.809692 
	C715.563660,249.027039 715.294312,248.523468 714.996582,247.812012 
	C714.968323,247.604111 714.956421,247.184662 714.886475,246.886017 
	C714.535522,246.050385 714.254639,245.513412 713.824463,244.699615 
	C713.439270,243.623489 713.203247,242.824173 713.111206,241.783081 
	C712.805115,240.708496 712.355042,239.875687 711.927979,239.020691 
	C711.951050,238.998505 711.947754,239.062302 711.953735,238.676392 
	C711.213562,236.881378 710.467468,235.472260 709.531616,233.819946 
	C708.890259,232.436768 708.438660,231.296783 707.848633,229.959015 
	C707.515747,229.505783 707.301270,229.268341 707.012329,228.725052 
	C706.897339,227.967514 706.836914,227.533844 707.057861,226.964478 
	C709.818726,223.488541 706.553528,223.748215 704.707520,222.723129 
	C702.213013,218.405624 699.947815,214.340424 697.662903,210.286346 
	C688.890503,194.721436 677.604004,181.769455 660.428589,175.164139 
	C644.377991,168.991364 629.713074,172.239685 616.330200,182.376083 
	C612.329956,185.405975 612.264771,187.456390 615.727417,189.015106 
	C629.604309,195.261902 640.384460,205.275650 649.480469,217.117157 
	C657.303406,227.301178 663.597473,238.423645 666.879639,251.013428 
M520.028625,195.179321 
	C524.537415,196.317871 529.185181,197.085495 533.513000,198.707092 
	C537.277405,200.117554 540.162964,199.584473 543.194580,197.208618 
	C546.063477,194.960312 549.028809,192.743332 552.226013,191.022125 
	C563.796875,184.792908 576.249390,182.525864 589.343628,182.853821 
	C591.821289,182.915894 595.217834,181.869553 596.696655,180.091949 
	C603.232727,172.235046 611.056335,166.335556 620.302185,162.121826 
	C621.638428,161.512848 622.577393,160.032272 623.700195,158.955063 
	C622.550476,157.899384 621.577576,156.413498 620.222839,155.856674 
	C610.112427,151.701035 599.553101,149.200272 588.625610,150.258850 
	C578.108521,151.277649 567.680786,153.211060 561.692139,163.713425 
	C561.293213,164.413025 560.159546,164.693649 558.855652,165.476562 
	C558.492310,163.762146 557.973022,162.527390 558.018372,161.313690 
	C558.206482,156.274796 556.129578,152.715256 551.636658,150.404816 
	C547.362122,148.206635 543.373657,145.325638 538.925171,143.613373 
	C516.012573,134.794083 493.923737,135.477585 473.731598,150.811920 
	C471.351349,152.619537 470.389191,156.461380 469.122009,159.506836 
	C468.329865,161.410583 468.198151,163.589142 467.514587,166.870926 
	C465.859070,164.821838 465.033234,164.170593 464.697876,163.324890 
	C462.383575,157.488785 457.592773,154.112350 451.989014,153.069092 
	C443.401093,151.470261 434.549622,150.168320 425.877838,150.501999 
	C419.259094,150.756699 412.628601,153.407181 406.230560,155.642319 
	C402.625366,156.901794 402.517334,159.803375 405.812195,161.281372 
	C415.506927,165.630219 422.627716,173.070114 429.990936,180.321457 
	C431.380188,181.689575 433.717102,182.891510 435.588013,182.850769 
	C453.507599,182.460632 469.184662,188.387985 483.457794,198.872299 
	C484.873413,199.912201 487.620117,200.304413 489.256195,199.688370 
	C498.922943,196.048569 508.804047,194.291016 520.028625,195.179321 
M357.721588,277.369904 
	C357.549347,276.763062 357.377106,276.156219 357.204895,275.549377 
	C356.786560,275.689453 356.368195,275.829529 355.949860,275.969604 
	C356.388031,276.480591 356.826202,276.991608 357.721588,277.369904 
M724.056458,255.925705 
	C723.655884,256.212952 723.255310,256.500183 722.854736,256.787445 
	C723.045044,256.987793 723.235352,257.188141 723.425659,257.388458 
	C723.728271,257.001007 724.030945,256.613556 724.056458,255.925705 
z"/>
<path fill="#3F1B0F" opacity="1.000000" stroke="none" 
	d="
M444.001709,725.919189 
	C459.498993,725.922302 474.496857,725.896729 489.494507,725.941956 
	C496.637024,725.963501 498.033936,727.369812 498.077545,734.385620 
	C498.114838,740.384399 497.978119,746.385620 498.097137,752.382202 
	C498.187653,756.943176 496.331329,759.104675 491.590576,759.094238 
	C458.262543,759.021057 424.934265,759.071777 391.606140,759.028015 
	C386.199829,759.020874 384.933777,757.668335 384.930969,752.074402 
	C384.908051,706.414795 384.908905,660.755249 384.938354,615.095642 
	C384.942261,609.040344 386.864227,607.038757 393.095734,607.025330 
	C424.924133,606.956665 456.752838,606.960022 488.581268,607.020508 
	C495.217438,607.033081 497.036591,609.074524 497.059052,615.836731 
	C497.078979,621.835754 496.986511,627.836182 497.085846,633.833618 
	C497.148926,637.641418 495.480469,639.860107 491.707947,640.335815 
	C489.238037,640.647217 486.745270,640.947449 484.261871,640.954468 
	C466.764709,641.003967 449.267365,640.968506 431.770050,640.976807 
	C424.650085,640.980164 424.076782,641.554260 424.025146,648.666016 
	C423.994904,652.831848 423.965546,656.998840 424.029266,661.163940 
	C424.116821,666.891479 425.071564,667.891418 430.791046,667.909180 
	C446.455231,667.957886 462.119690,667.913147 477.783997,667.935486 
	C485.380554,667.946350 486.087921,668.675842 486.111481,676.220032 
	C486.127625,681.385925 486.166595,686.552063 486.123871,691.717590 
	C486.072083,697.976318 485.029724,699.067078 478.859680,699.081970 
	C463.028778,699.120300 447.197693,699.069519 431.366791,699.104309 
	C424.926819,699.118469 424.113922,699.942200 424.037994,706.274597 
	C423.984039,710.773193 424.090942,715.274231 424.009491,719.772034 
	C423.934448,723.917542 425.796082,725.965942 430.005249,725.913025 
	C434.503510,725.856445 439.003143,725.912659 444.001709,725.919189 
z"/>
<path fill="#3F1B0F" opacity="1.000000" stroke="none" 
	d="
M730.000000,667.919556 
	C739.830872,667.924255 749.162781,668.011902 758.492249,667.900208 
	C763.061096,667.845520 765.281860,669.628601 765.136353,674.406311 
	C764.953796,680.399048 765.167786,686.402771 765.069275,692.399475 
	C764.978333,697.932922 763.860046,699.037231 758.138977,699.063232 
	C742.976501,699.132263 727.813599,699.084167 712.650818,699.110474 
	C705.149902,699.123474 704.100952,700.214783 704.065430,707.873291 
	C704.049194,711.372314 704.017395,714.872437 704.082642,718.370300 
	C704.187195,723.972412 706.002258,725.872070 711.630981,725.890930 
	C730.459290,725.954163 749.287903,725.914734 768.116394,725.932068 
	C777.075867,725.940369 778.053467,726.948608 778.046814,736.043579 
	C778.042786,741.542053 778.023804,747.040588 778.003845,752.539062 
	C777.987610,757.018616 775.972473,759.126465 771.254578,759.112244 
	C738.430176,759.013184 705.605469,759.073914 672.780823,759.032959 
	C667.159363,759.025940 665.958557,757.856201 665.954285,752.269592 
	C665.919250,706.448059 665.923523,660.626587 665.956970,614.805054 
	C665.961121,609.105469 667.963074,607.057556 673.887085,607.044922 
	C705.712097,606.977356 737.537415,606.967224 769.362305,607.055359 
	C775.621277,607.072693 778.255310,610.304504 778.057739,616.493103 
	C777.898315,621.486511 778.056702,626.489258 778.023132,631.487549 
	C777.981201,637.737305 775.695190,640.261841 769.488159,640.852112 
	C767.669067,641.025146 765.826294,640.980286 763.994385,640.980896 
	C746.694336,640.986511 729.394287,640.969971 712.094238,640.983826 
	C706.459900,640.988342 704.143677,643.339478 704.072998,649.105225 
	C704.026001,652.936951 703.984985,656.771667 704.081116,660.601562 
	C704.206421,665.596191 706.435669,667.815430 711.504395,667.896362 
	C717.501526,667.992126 723.501343,667.919861 730.000000,667.919556 
z"/>
<path fill="#3F1B0F" opacity="1.000000" stroke="none" 
	d="
M570.050903,638.000000 
	C570.058533,664.658569 570.058228,690.817200 570.082581,716.975769 
	C570.087402,722.164917 572.965393,724.972595 578.282227,724.982788 
	C594.776794,725.014343 611.271484,724.990051 627.765991,725.034607 
	C635.202209,725.054688 636.053711,725.940674 636.089233,733.397705 
	C636.120911,740.062195 636.010315,746.728577 636.136475,753.390869 
	C636.212585,757.414673 634.494141,759.088745 630.459778,759.081116 
	C599.302856,759.022095 568.145813,759.044617 536.988770,759.072327 
	C532.595398,759.076233 530.725647,757.026428 530.735901,752.617737 
	C530.841736,707.135437 530.876831,661.653015 530.912292,616.170593 
	C530.918823,607.835144 531.725708,606.987366 539.983704,607.002869 
	C547.314758,607.016602 554.646484,606.948792 561.976746,607.027100 
	C568.374146,607.095459 570.023560,608.761230 570.052368,615.006653 
	C570.086975,622.504272 570.054810,630.002197 570.050903,638.000000 
z"/>
<path fill="#3F1B0F" opacity="1.000000" stroke="none" 
	d="
M295.020996,761.970520 
	C277.378448,762.112854 260.203369,759.898865 246.275345,747.963074 
	C240.458725,742.978394 235.837448,736.424927 231.382980,730.085632 
	C228.393265,725.830933 229.832535,723.066895 234.653793,720.583984 
	C241.160736,717.232910 247.664276,713.872131 254.101593,710.390320 
	C258.254333,708.144165 260.796722,709.376770 262.904846,713.418579 
	C267.916260,723.026550 276.313446,727.254639 286.859344,727.930359 
	C297.669830,728.623108 309.001953,721.192200 308.729065,707.195679 
	C308.305847,685.488647 309.522247,663.751892 309.926941,642.025574 
	C310.091339,633.200928 309.930847,624.370544 309.953918,615.542908 
	C309.971619,608.753174 311.411438,607.147705 317.998718,607.042603 
	C325.658630,606.920410 333.323181,606.915833 340.983185,607.030334 
	C347.145630,607.122498 349.059814,609.093933 349.066620,615.186157 
	C349.101654,646.499146 349.655334,677.828552 348.739716,709.114563 
	C348.483856,717.856934 344.975403,727.033264 340.988525,735.027832 
	C332.554688,751.939575 316.664795,758.176880 299.066956,761.032410 
	C297.923920,761.217834 296.783020,761.416321 295.320251,761.802429 
	C294.999420,761.996155 295.020996,761.970520 295.020996,761.970520 
z"/>
<path fill="#3F1B0F" opacity="1.000000" stroke="none" 
	d="
M532.977539,797.984497 
	C538.955139,799.961304 545.208496,801.354614 550.858154,804.025146 
	C567.342712,811.817139 575.670349,825.225647 577.213135,843.361755 
	C578.084595,853.604797 576.695679,863.517273 571.889404,872.229675 
	C566.729431,881.583313 558.225281,888.214539 547.959900,891.689697 
	C541.872681,893.750488 535.283264,894.286987 529.108643,896.138977 
	C517.095032,899.742249 504.880188,897.298218 492.776245,897.841003 
	C485.393341,898.172119 483.000183,895.411499 482.994507,887.938965 
	C482.973846,860.782043 482.961243,833.625122 482.975647,806.468201 
	C482.980194,797.866455 484.628082,796.231445 493.088013,796.197144 
	C501.251648,796.164062 509.423096,795.920593 517.576050,796.203918 
	C522.440430,796.373047 527.275818,797.378235 532.562134,798.005249 
	C533.000122,798.002930 532.977539,797.984558 532.977539,797.984497 
M507.060181,855.497803 
	C507.067017,859.820862 507.236420,864.151855 507.026794,868.464417 
	C506.872406,871.640503 508.226715,874.005005 511.037292,874.480103 
	C515.015625,875.152710 519.169678,875.243591 523.212830,874.996765 
	C541.453064,873.883484 547.718384,868.035706 552.117554,850.438782 
	C555.088928,838.553040 547.851379,823.428040 534.093933,820.481628 
	C527.207092,819.006775 519.902832,819.577698 512.820923,818.881775 
	C508.262207,818.433838 506.962555,820.359863 507.027435,824.570618 
	C507.181091,834.544495 507.065613,844.522522 507.060181,855.497803 
z"/>
<path fill="#3F1B0F" opacity="1.000000" stroke="none" 
	d="
M644.018188,869.011780 
	C642.806946,864.540833 641.595703,860.069885 640.193970,855.299255 
	C640.003479,854.999573 640.028809,855.021301 640.028809,855.021301 
	C638.976196,842.680908 640.469727,830.921021 647.011475,820.019775 
	C655.014099,806.684204 667.029114,799.181335 681.792480,796.003418 
	C697.062744,792.716431 711.880615,795.386902 724.706604,803.925659 
	C734.905212,810.715271 742.601318,820.416077 745.002502,833.075745 
	C746.068298,838.694824 746.350281,844.462524 746.993408,850.581787 
	C746.998901,851.000732 747.009705,850.986572 747.009705,850.986572 
	C745.973389,855.283691 745.336548,859.726501 743.832153,863.852966 
	C736.958008,882.708313 723.624939,894.093506 703.836914,897.989502 
	C680.861633,902.513123 656.008423,892.164551 644.237305,869.226440 
	C644.002747,868.997437 644.018188,869.011780 644.018188,869.011780 
M721.964294,851.141052 
	C721.962769,848.813904 722.001282,846.485901 721.953064,844.159729 
	C721.706604,832.263611 715.370178,824.147766 705.105164,819.412109 
	C691.481689,813.127014 674.073547,819.277222 668.047913,832.599670 
	C660.846191,848.522461 665.125122,864.651123 679.050354,872.802734 
	C696.225525,882.856934 718.140259,873.048889 721.964294,851.141052 
z"/>
<path fill="#3F1B0F" opacity="1.000000" stroke="none" 
	d="
M398.935516,857.960388 
	C399.817963,861.594055 400.448944,865.312622 401.639465,868.842346 
	C403.617950,874.708008 412.997498,877.501526 421.643097,876.206726 
	C422.021667,875.963928 422.132294,875.846802 422.132294,875.846802 
	C432.434418,875.790039 435.971802,866.134094 435.867371,858.529785 
	C435.618378,840.402771 435.331970,822.275940 435.190155,804.148010 
	C435.155029,799.655701 438.525024,796.416870 443.025726,796.238953 
	C446.183594,796.114075 449.350037,796.190735 452.512573,796.204529 
	C459.708496,796.235962 460.990631,797.445374 461.003662,804.567200 
	C461.035950,822.211365 461.057037,839.855835 460.964203,857.499634 
	C460.945251,861.103760 460.672638,864.750305 460.065155,868.300049 
	C457.115540,885.536011 445.472412,894.083435 429.561401,897.825439 
	C416.266602,900.952148 403.594391,898.379944 391.531464,892.319946 
	C384.353760,888.714172 379.430695,883.049988 376.697632,875.551147 
	C374.860931,870.511658 373.672791,865.467468 373.797028,859.870789 
	C374.199554,841.736084 373.939758,823.586975 373.957550,805.443420 
	C373.965302,797.513062 374.760345,796.648499 382.733307,796.270630 
	C386.221405,796.105225 389.745422,795.978271 393.207336,796.310669 
	C394.743195,796.458069 396.165558,797.787537 397.811707,799.281921 
	C397.986176,817.042542 397.953461,834.101868 398.032410,851.160645 
	C398.042908,853.428589 398.620544,855.693848 398.935516,857.960388 
z"/>
<path fill="#3F1B0F" opacity="1.000000" stroke="none" 
	d="
M222.990585,795.017639 
	C235.081726,794.900269 246.861908,796.130981 257.472015,802.707214 
	C262.803314,806.011780 262.900696,806.241455 259.583984,811.566589 
	C257.823364,814.393311 256.004669,817.185974 254.318649,820.056580 
	C252.462723,823.216675 250.355469,823.635559 246.852997,822.147034 
	C241.399750,819.829407 235.578690,818.387329 229.944824,816.481567 
	C224.822433,814.748779 216.702118,820.940613 217.447113,826.110962 
	C218.118439,830.770203 221.551559,832.332520 225.089035,833.662903 
	C233.741592,836.916931 242.970306,838.984985 251.106842,843.193542 
	C268.407959,852.142700 272.528900,871.903931 259.240479,887.252380 
	C249.980560,897.947754 237.385147,899.784790 224.190979,898.907959 
	C213.164032,898.175171 202.577988,895.553894 193.248596,889.298523 
	C186.975540,885.092529 187.016129,884.542114 191.670853,878.783081 
	C194.909286,874.776306 198.099609,870.730652 201.251312,866.777771 
	C206.639572,869.541748 211.613586,872.868652 217.089188,874.675903 
	C222.189987,876.359558 227.830200,877.060608 233.222366,877.012207 
	C237.886139,876.970398 241.220245,873.757568 241.851715,868.818481 
	C242.388733,864.618286 239.378433,861.059937 234.094025,859.173950 
	C225.200699,856.000000 216.183899,853.141846 207.413757,849.660400 
	C196.410660,845.292664 191.068008,837.027832 191.910629,825.012085 
	C192.050095,823.023438 191.918076,821.015747 191.944946,818.512573 
	C191.978394,818.008362 192.076630,817.908691 192.076630,817.908691 
	C197.019165,803.477600 208.155319,797.360535 222.678101,795.176025 
	C223.002777,794.998352 222.990585,795.017639 222.990585,795.017639 
z"/>
<path fill="#3F1B0F" opacity="1.000000" stroke="none" 
	d="
M796.004883,877.003601 
	C800.809814,878.815247 804.920654,877.093384 808.314514,873.940430 
	C812.638428,869.923523 811.749084,863.177002 806.057434,860.702454 
	C798.337769,857.346252 790.182007,854.964417 782.148621,852.364624 
	C768.487183,847.943420 760.164307,836.792969 761.010864,823.150391 
	C761.642517,812.970764 766.435181,805.000732 775.601562,800.313721 
	C792.962891,791.436218 810.044861,794.162109 826.664185,802.563538 
	C831.561035,805.039001 831.768250,807.128479 828.810974,811.804077 
	C826.417969,815.587708 824.681580,821.090210 821.263672,822.529724 
	C818.264038,823.793213 813.380615,820.289673 809.243225,819.226196 
	C804.771240,818.076721 800.231262,816.820007 795.662109,816.526306 
	C791.267456,816.243774 788.066284,819.364441 786.498840,823.131775 
	C784.884766,827.011292 787.296204,830.150940 790.806519,831.529968 
	C798.345764,834.491577 806.200562,836.658691 813.707153,839.692932 
	C832.576294,847.320496 840.123718,860.205261 834.130798,878.270630 
	C830.949585,887.860413 822.401062,894.422058 812.256897,897.033569 
	C795.451721,901.360107 779.307312,898.886963 764.106079,890.531372 
	C757.339844,886.812134 756.907227,884.783325 761.238159,878.591125 
	C769.259827,867.121704 769.177734,867.300476 781.930481,873.154663 
	C786.058655,875.049744 790.741211,875.736938 795.585083,876.988281 
	C796.000000,877.000000 796.004883,877.003601 796.004883,877.003601 
z"/>
<path fill="#3F1B0F" opacity="1.000000" stroke="none" 
	d="
M303.350708,819.281372 
	C296.591980,819.120361 290.263733,819.096375 283.936157,819.016357 
	C278.108551,818.942627 277.044739,818.016357 277.035767,812.434509 
	C277.007812,795.028625 275.571533,798.113953 291.154480,797.988586 
	C309.644135,797.839844 328.136292,798.010681 346.626221,797.880249 
	C348.921417,797.864075 351.267456,796.277588 353.480682,796.500977 
	C354.964447,796.650757 357.323334,798.614563 357.444427,799.935913 
	C357.927521,805.205933 357.996338,810.572632 357.480316,815.831116 
	C357.362610,817.030457 354.356476,818.707886 352.580444,818.841064 
	C347.112946,819.251160 341.589722,819.205750 336.102814,818.980286 
	C331.550079,818.793091 329.986786,820.592834 330.018738,825.135864 
	C330.171051,846.790588 330.044830,868.447266 330.074371,890.103210 
	C330.079224,893.646362 329.681061,896.646729 323.506775,895.925537 
	C325.732056,896.802124 326.443024,897.082214 327.155518,897.368347 
	C326.928925,897.544250 326.702515,897.859436 326.472321,897.862305 
	C322.308441,897.913208 318.143707,897.974548 313.979980,897.936584 
	C307.457123,897.877136 306.009857,896.464844 305.999329,889.984070 
	C305.964630,868.661255 306.042267,847.338013 305.877289,826.016418 
	C305.860168,823.803650 304.512024,821.601135 303.350708,819.281372 
z"/>
<path fill="#3F1B0F" opacity="1.000000" stroke="none" 
	d="
M597.179138,799.042786 
	C599.166565,798.105591 601.072021,796.753723 603.163086,796.340393 
	C605.562195,795.866211 608.125793,796.211365 610.617859,796.222534 
	C619.836914,796.263977 621.875671,798.210999 621.780151,807.265320 
	C621.564697,827.686890 621.222168,848.107056 621.034485,868.528748 
	C620.971985,875.330017 621.231812,882.134155 621.329407,888.937195 
	C621.420593,895.296265 618.841919,898.248901 612.609985,897.867798 
	C607.834290,897.575867 602.574890,899.867676 598.152222,894.982666 
	C597.977112,864.434326 598.003723,834.673279 597.964111,804.912231 
	C597.961548,802.955383 597.452576,800.999268 597.179138,799.042786 
z"/>
<path fill="#AF8F78" opacity="1.000000" stroke="none" 
	d="
M665.000488,663.000000 
	C665.000977,692.956665 665.000977,722.413330 665.000977,751.869995 
	C664.759399,751.869690 664.517822,751.869324 664.276245,751.869019 
	C664.276245,705.683594 664.276245,659.498108 664.276245,613.312683 
	C664.517517,613.309204 664.758728,613.305725 665.000000,613.302246 
	C665.000000,629.701477 665.000000,646.100769 665.000488,663.000000 
z"/>
<path fill="#3B170E" opacity="1.000000" stroke="none" 
	d="
M399.110474,857.591553 
	C398.620544,855.693848 398.042908,853.428589 398.032410,851.160645 
	C397.953461,834.101868 397.986176,817.042542 397.981262,799.519958 
	C398.638214,800.245605 399.866180,801.431824 399.872131,802.624268 
	C399.959106,820.019592 399.890137,837.415710 399.821838,854.811523 
	C399.818665,855.615967 399.472076,856.419006 399.110474,857.591553 
z"/>
<path fill="#3F1B0F" opacity="1.000000" stroke="none" 
	d="
M597.114624,799.503296 
	C597.452576,800.999268 597.961548,802.955383 597.964111,804.912231 
	C598.003723,834.673279 597.977112,864.434326 597.951965,894.679565 
	C597.595581,893.568237 596.955505,891.972778 596.954834,890.377136 
	C596.941345,860.239380 597.003601,830.101562 597.114624,799.503296 
z"/>
<path fill="#401A0F" opacity="1.000000" stroke="none" 
	d="
M716.036377,213.561798 
	C709.513062,212.491440 705.262695,205.229279 706.038696,196.258759 
	C709.360962,201.622849 712.665710,207.416565 716.036377,213.561798 
z"/>
<path fill="#401A0F" opacity="1.000000" stroke="none" 
	d="
M308.691467,210.167572 
	C312.673492,214.911636 307.607544,218.707535 306.976898,223.090500 
	C306.894226,223.665253 304.140747,223.855743 302.317657,224.113861 
	C304.157043,219.466980 306.303040,214.930450 308.691467,210.167572 
z"/>
<path fill="#401A0F" opacity="1.000000" stroke="none" 
	d="
M719.936707,221.674255 
	C717.833252,221.455261 715.713989,220.920883 713.004211,220.237610 
	C714.182983,217.913895 715.020752,216.262451 715.973083,214.278503 
	C717.365417,216.416962 718.643188,218.887909 719.936707,221.674255 
z"/>
<path fill="#3F1B0F" opacity="1.000000" stroke="none" 
	d="
M488.066101,691.224731 
	C487.996918,692.409790 487.930237,693.203918 487.863556,693.997986 
	C487.645538,693.993896 487.427551,693.989807 487.209534,693.985718 
	C487.209534,687.035828 487.209534,680.085876 487.209534,673.135986 
	C487.495880,673.121582 487.782257,673.107117 488.068604,673.092712 
	C488.068604,679.006409 488.068604,684.920044 488.066101,691.224731 
z"/>
<path fill="#3F1B0F" opacity="1.000000" stroke="none" 
	d="
M223.011154,794.989868 
	C222.728104,794.906616 222.436691,794.831787 222.145279,794.756958 
	C222.360596,794.754944 222.575912,794.752869 222.890900,794.884216 
	C222.990585,795.017639 223.002777,794.998352 223.011154,794.989868 
z"/>
<path fill="#401A0F" opacity="1.000000" stroke="none" 
	d="
M309.728882,208.004395 
	C309.723785,208.346115 309.511292,208.922180 309.117920,209.747726 
	C309.131836,209.411057 309.326691,208.824905 309.728882,208.004395 
z"/>
<path fill="#401A0F" opacity="1.000000" stroke="none" 
	d="
M599.982117,568.015930 
	C600.233643,568.065918 600.500671,568.088074 600.756775,568.153442 
	C600.810852,568.167297 600.824585,568.339417 600.856873,568.438599 
	C600.640503,568.385620 600.424133,568.332642 600.110229,568.127625 
	C600.012756,567.975586 599.993774,568.003418 599.982117,568.015930 
z"/>
<path fill="#3B170E" opacity="1.000000" stroke="none" 
	d="
M422.993866,135.004272 
	C422.987335,135.009338 422.751587,134.841110 422.751587,134.841110 
	C422.751587,134.841110 422.960022,134.837372 422.985626,134.911316 
	C423.011230,134.985260 423.000397,134.999191 422.993866,135.004272 
z"/>
<path fill="#3F1B0F" opacity="1.000000" stroke="none" 
	d="
M795.997559,876.996948 
	C795.995117,876.993958 796.146545,876.728760 796.146545,876.728760 
	C796.146545,876.728760 796.159668,876.946899 796.082275,876.975220 
	C796.004883,877.003601 796.000000,877.000000 795.997559,876.996948 
z"/>
<path fill="#3F1B0F" opacity="1.000000" stroke="none" 
	d="
M421.964905,876.021118 
	C421.908142,876.078308 421.601959,875.731262 421.601959,875.731262 
	C421.601959,875.731262 421.983032,875.655701 422.057678,875.751221 
	C422.132294,875.846802 422.021667,875.963928 421.964905,876.021118 
z"/>
<path fill="#3F1B0F" opacity="1.000000" stroke="none" 
	d="
M643.995911,868.989502 
	C643.989075,868.981506 643.976379,869.047363 643.997314,869.029541 
	C644.018188,869.011780 644.002747,868.997437 643.995911,868.989502 
z"/>
<path fill="#3B170E" opacity="1.000000" stroke="none" 
	d="
M652.990784,156.988281 
	C652.983337,156.979202 653.168213,156.678116 653.168213,156.678116 
	C653.168213,156.678116 653.188965,156.937698 653.101807,156.974457 
	C653.014648,157.011200 652.998230,156.997360 652.990784,156.988281 
z"/>
<path fill="#3F1B0F" opacity="1.000000" stroke="none" 
	d="
M639.992859,854.986938 
	C639.982239,854.974243 639.860535,855.211304 639.860535,855.211304 
	C639.860535,855.211304 639.884583,855.047668 639.956665,855.034485 
	C640.028809,855.021301 640.003479,854.999573 639.992859,854.986938 
z"/>
<path fill="#3F1B0F" opacity="1.000000" stroke="none" 
	d="
M746.991577,851.006775 
	C746.984192,851.012817 747.239075,851.124329 747.239075,851.124329 
	C747.239075,851.124329 747.055420,851.130249 747.032593,851.058411 
	C747.009705,850.986572 746.998901,851.000732 746.991577,851.006775 
z"/>
<path fill="#401A0F" opacity="1.000000" stroke="none" 
	d="
M721.892578,225.774353 
	C721.783752,225.753265 721.548889,225.506134 721.162354,225.051025 
	C721.262695,225.078140 721.514648,225.313202 721.892578,225.774353 
z"/>
<path fill="#3F1B0F" opacity="1.000000" stroke="none" 
	d="
M191.927872,818.056763 
	C191.877350,818.105164 191.574310,817.764648 191.574310,817.764648 
	C191.574310,817.764648 191.945770,817.710388 192.011200,817.809570 
	C192.076630,817.908691 191.978394,818.008362 191.927872,818.056763 
z"/>
<path fill="#3F1B0F" opacity="1.000000" stroke="none" 
	d="
M533.009521,798.014221 
	C533.018982,798.025513 533.122009,797.769653 533.122009,797.769653 
	C533.122009,797.769653 533.120728,797.941345 533.049133,797.962952 
	C532.977539,797.984558 533.000122,798.002930 533.009521,798.014221 
z"/>
<path fill="#3F1B0F" opacity="1.000000" stroke="none" 
	d="
M294.986572,762.006714 
	C294.973755,762.017212 295.043152,762.089600 295.032074,762.030029 
	C295.020996,761.970520 294.999420,761.996155 294.986572,762.006714 
z"/>
<path fill="#401A0F" opacity="1.000000" stroke="none" 
	d="
M359.992493,558.989502 
	C359.985657,558.980835 359.888397,559.213135 359.888397,559.213135 
	C359.888397,559.213135 359.886810,559.055115 359.951477,559.033081 
	C360.016144,559.011108 359.999298,558.998108 359.992493,558.989502 
z"/>
<path fill="#401A0F" opacity="1.000000" stroke="none" 
	d="
M383.998779,562.998779 
	C383.997559,562.997559 383.823486,563.347168 383.823486,563.347168 
	C383.823486,563.347168 383.804138,563.069336 383.903015,563.035522 
	C384.001923,563.001709 384.000000,563.000000 383.998779,562.998779 
z"/>
<path fill="#000000" opacity="1.000000" stroke="none" 
	d="
M464.995209,244.002151 
	C466.935822,240.599716 468.876404,237.197296 471.186066,233.276825 
	C472.069611,231.846298 472.584137,230.933807 473.098633,230.021317 
	C478.249542,225.866043 483.134369,221.317200 488.597687,217.624054 
	C511.476532,202.158188 541.383362,211.006210 554.405396,234.907776 
	C557.340210,240.294540 559.781006,245.950500 562.717407,252.067535 
	C563.316284,253.449295 563.646851,254.246063 563.977356,255.042847 
	C563.977356,255.042847 563.993408,254.992630 563.993225,255.407623 
	C565.020081,259.862274 566.047180,263.901917 567.074219,267.941589 
	C567.088135,268.122131 567.101990,268.302643 567.165588,268.750366 
	C570.461121,289.711304 574.124023,310.350342 576.842163,331.113068 
	C579.926636,354.674408 582.382629,378.325134 584.706848,401.976746 
	C586.771240,422.984283 588.276978,444.046692 590.039307,465.084045 
	C590.594299,471.709015 591.030396,478.348633 591.789001,484.950745 
	C592.969177,495.223480 589.748169,503.048370 580.518250,508.483826 
	C568.318176,515.668396 554.954834,519.081909 541.194885,520.625488 
	C518.961121,523.119507 496.650543,523.243469 474.588562,518.807739 
	C462.503113,516.377869 450.504913,513.405640 440.286041,505.853027 
	C435.565674,502.364258 432.633484,497.809235 432.982880,491.897736 
	C433.993103,474.805573 435.146790,457.719177 436.499054,440.650696 
	C437.851105,423.585205 439.415009,406.534729 441.063843,389.494904 
	C442.616913,373.445129 444.015961,357.365662 446.174408,341.392700 
	C449.468903,317.012939 453.309906,292.706146 457.049042,268.388367 
	C457.602295,264.790375 458.868591,261.301971 459.859497,257.384247 
	C461.267059,253.347519 462.620087,249.689423 464.200378,245.479919 
	C464.616852,244.619720 464.806030,244.310944 464.995209,244.002151 
z"/>
<path fill="#000000" opacity="1.000000" stroke="none" 
	d="
M453.978668,233.019333 
	C453.978668,233.019333 453.938202,233.338364 453.751953,233.700439 
	C453.363892,234.374619 453.162140,234.686752 452.960358,234.998871 
	C452.688660,235.489182 452.416962,235.979492 451.892700,237.018890 
	C451.074524,239.033737 450.508942,240.499481 449.943359,241.965225 
	C449.943359,241.965225 449.976227,242.007355 449.802917,242.208069 
	C449.422211,242.936874 449.214752,243.464966 449.007324,243.993073 
	C448.103546,246.456802 447.199768,248.920532 446.160889,251.955612 
	C446.025757,252.526962 445.999084,253.000504 445.999084,253.000504 
	C445.716156,253.793335 445.433258,254.586166 445.123535,255.694946 
	C442.408081,270.049835 439.127930,284.006470 437.161499,298.145874 
	C433.726532,322.844635 430.837860,347.628082 428.210480,372.427948 
	C425.776550,395.402252 423.903046,418.437622 421.935760,441.459198 
	C420.477875,458.519653 419.349884,475.608673 417.813995,492.661469 
	C417.658569,494.387390 416.030670,496.949371 414.532959,497.442108 
	C386.798279,506.567169 360.059326,504.553894 334.882141,489.199554 
	C325.793945,483.657135 322.610199,474.923187 324.344513,464.650269 
	C333.408142,410.963501 344.030914,357.594666 357.465271,304.811279 
	C358.655243,300.135864 359.871368,295.467102 361.120789,290.387787 
	C362.303619,286.513092 363.440979,283.045868 364.740448,279.023132 
	C364.902557,278.467682 364.930420,278.044098 364.930420,278.044098 
	C365.936066,274.949371 366.941711,271.854645 368.167297,268.089111 
	C369.227814,264.953796 370.068390,262.489319 370.908936,260.024811 
	C370.908936,260.024811 370.978149,259.548767 371.212280,259.064514 
	C371.930298,257.396545 372.414215,256.212830 372.898132,255.029083 
	C372.898102,255.029068 372.966370,254.539566 373.169556,254.067505 
	C373.586243,253.063660 373.799774,252.531876 374.013306,252.000092 
	C379.702881,242.291321 384.331238,231.733810 391.286682,223.037476 
	C410.028564,199.604553 442.726776,190.853821 467.041229,206.323914 
	C471.596680,209.222336 471.701599,209.991455 468.081299,214.269806 
	C465.513092,217.304749 462.896423,220.298660 459.945587,223.761566 
	C459.376312,224.474472 459.162842,224.736710 458.949371,224.998932 
	C458.380341,225.797470 457.811310,226.595993 456.914246,227.884094 
	C456.338287,228.913910 456.090332,229.454132 455.842346,229.994354 
	C455.586151,230.432175 455.329926,230.869995 454.827393,231.734528 
	C454.380280,232.447266 454.179474,232.733307 453.978668,233.019333 
z"/>
<path fill="#000000" opacity="1.000000" stroke="none" 
	d="
M574.838379,242.106735 
	C571.196533,230.782593 564.502747,221.335831 556.316895,212.954590 
	C553.353821,209.920776 553.544189,208.342529 557.038452,206.214615 
	C574.513977,195.572464 592.404297,196.437256 610.440796,204.306396 
	C629.400452,212.578308 640.607544,228.154831 648.879150,246.265976 
	C651.428955,251.848877 653.498352,257.651215 655.975708,264.009705 
	C656.753967,265.792908 657.344299,266.919464 657.934631,268.046021 
	C657.934631,268.046021 657.829834,268.062317 657.807556,268.111755 
	C661.564575,282.996277 665.929871,297.710663 669.015686,312.688599 
	C679.155212,361.904755 688.894409,411.203888 698.620605,460.504089 
	C700.214844,468.584656 701.027100,477.172211 694.886902,483.757233 
	C691.032898,487.890381 686.046692,491.433655 680.908691,493.822876 
	C658.897461,504.058350 636.125183,505.632141 612.793091,498.523132 
	C608.725708,497.283844 607.070740,495.256958 606.734314,490.798279 
	C604.758484,464.612366 602.522705,438.444000 600.127136,412.292419 
	C597.913086,388.122833 595.787048,363.933899 592.896851,339.840485 
	C589.472351,311.293274 586.902893,282.571228 579.091248,254.725082 
	C578.239014,251.687424 577.094482,248.731796 575.992126,245.373901 
	C575.686035,244.497147 575.473328,243.984634 575.096741,243.008087 
	C574.932861,242.544052 574.838379,242.106735 574.838379,242.106735 
z"/>
<path fill="#000000" opacity="1.000000" stroke="none" 
	d="
M303.062378,484.986298 
	C308.999023,484.188416 312.206573,486.407532 315.767242,490.961212 
	C320.341888,496.811829 326.394867,502.182617 332.918518,505.714355 
	C359.109924,519.893616 386.806427,521.703186 415.186829,513.238525 
	C420.670044,511.603088 424.558807,512.151550 429.084717,516.262024 
	C438.926971,525.200867 451.373505,529.468628 464.103180,532.409180 
	C499.157043,540.506653 534.074890,540.170166 568.632874,529.565491 
	C579.218811,526.317017 589.242432,521.842407 597.006287,513.521606 
	C599.726746,510.606049 602.589111,511.729431 605.709717,512.717834 
	C633.947693,521.661804 661.518860,519.885864 688.315674,507.214691 
	C697.246765,502.991577 704.402649,496.534973 709.900757,488.415039 
	C711.941895,485.400665 714.387024,484.956787 717.534729,485.009705 
	C731.668884,485.247314 744.981689,482.349213 756.920044,474.391541 
	C775.735107,461.850128 781.640564,444.380890 776.665710,422.742676 
	C776.293152,421.121887 775.818909,419.484619 775.761780,417.842163 
	C775.703125,416.155853 776.098633,414.453766 776.295349,412.758575 
	C777.855957,412.986176 779.601685,412.837646 780.947998,413.500549 
	C792.327820,419.103729 803.343628,425.205750 812.192627,434.647675 
	C827.360291,450.831512 826.006714,467.023438 812.521606,482.805756 
	C800.442078,496.943024 784.271057,505.402100 767.658936,512.880615 
	C730.926453,529.416931 692.023865,538.356018 652.510803,544.923706 
	C620.973206,550.165710 589.217407,553.512024 557.231873,554.065308 
	C528.928772,554.554932 500.580322,555.717102 472.320282,554.693542 
	C419.681396,552.786987 367.533173,546.445618 316.431061,532.962097 
	C286.653442,525.105164 257.712280,515.142700 231.796707,498.143250 
	C224.135849,493.118073 216.905960,486.888062 210.929886,479.958527 
	C199.184387,466.339081 200.069382,449.588257 212.178787,435.453918 
	C221.296463,424.811584 233.340729,418.409424 245.848160,412.750702 
	C246.385895,412.507416 247.106186,412.667572 248.584991,412.602844 
	C248.190186,415.627838 247.911713,418.329376 247.474930,421.005127 
	C245.974701,430.195831 243.913345,439.436462 247.130814,448.608978 
	C252.505051,463.930176 263.847351,473.798431 278.361816,479.606445 
	C285.942993,482.640076 294.487427,483.266388 303.062378,484.986298 
z"/>
<path fill="#000000" opacity="1.000000" stroke="none" 
	d="
M350.972198,274.027863 
	C350.290283,276.348236 349.608398,278.668640 348.900482,281.343201 
	C345.008301,296.146118 340.657288,310.485748 337.378387,325.066528 
	C330.846130,354.114105 324.612854,383.236664 318.824615,412.440918 
	C315.304901,430.199524 312.902069,448.178101 309.809357,466.025269 
	C309.564789,467.436523 308.047638,469.433289 306.779602,469.739227 
	C289.888458,473.814423 264.735718,458.533417 261.063385,441.564758 
	C259.980164,436.559509 260.348145,430.924500 261.347687,425.832642 
	C272.384796,369.606903 286.698456,314.216644 304.452515,259.727966 
	C306.099701,254.672653 307.957520,249.685959 309.854614,244.333328 
	C312.663025,237.626434 315.334351,231.253601 318.278137,224.270081 
	C319.071716,222.451508 319.592865,221.243622 320.113983,220.035721 
	C324.787720,212.803741 329.062103,205.272293 334.215546,198.400055 
	C346.158173,182.474289 362.020386,172.656433 382.099274,171.437775 
	C393.455444,170.748520 403.487915,175.574921 412.150116,182.901306 
	C414.885101,185.214569 413.976501,187.388489 411.105469,188.675095 
	C400.156464,193.581772 390.508270,200.295029 383.183655,209.819656 
	C377.166199,217.644516 371.782410,225.956711 365.850800,234.575256 
	C365.393768,235.394501 365.203705,235.691391 365.013641,235.988281 
	C365.013641,235.988281 364.963654,236.346924 364.773315,236.717072 
	C364.393738,237.387009 364.204529,237.686813 364.015289,237.986603 
	C360.780670,246.112549 357.546051,254.238480 354.095459,263.067078 
	C353.539062,265.200409 353.198608,266.631042 352.858185,268.061676 
	C352.531250,269.323822 352.204315,270.585999 351.698090,272.390839 
	C351.336578,273.298309 351.154388,273.663086 350.972198,274.027863 
z"/>
<path fill="#000000" opacity="1.000000" stroke="none" 
	d="
M712.967224,242.024872 
	C713.203247,242.824173 713.439270,243.623489 713.884766,244.999695 
	C714.381653,246.112625 714.669006,246.648651 714.956421,247.184662 
	C714.956421,247.184662 714.968323,247.604111 715.053650,248.094635 
	C715.419434,249.086365 715.699829,249.587570 715.980286,250.088776 
	C716.524475,251.854095 717.068726,253.619415 717.813232,256.032776 
	C718.366943,257.772034 718.720459,258.863251 719.073975,259.954437 
	C719.321411,260.773315 719.568909,261.592194 719.944885,262.707825 
	C732.813538,310.754944 745.644287,358.481476 758.207947,406.278229 
	C760.399658,414.616180 761.959290,423.193146 762.945374,431.759338 
	C764.744080,447.385010 757.936096,458.329651 743.624084,464.847412 
	C735.736572,468.439423 727.558716,470.166107 718.931519,470.026245 
	C716.363586,469.984589 714.546631,469.444366 714.029602,466.345337 
	C709.759949,440.756165 705.682373,415.128784 700.933838,389.627075 
	C693.255859,348.393768 684.908020,307.291168 672.929443,267.035645 
	C671.371277,261.799316 669.173462,256.753326 667.075806,251.316315 
	C663.597473,238.423645 657.303406,227.301178 649.480469,217.117157 
	C640.384460,205.275650 629.604309,195.261902 615.727417,189.015106 
	C612.264771,187.456390 612.329956,185.405975 616.330200,182.376083 
	C629.713074,172.239685 644.377991,168.991364 660.428589,175.164139 
	C677.604004,181.769455 688.890503,194.721436 697.662903,210.286346 
	C699.947815,214.340424 702.213013,218.405624 704.776733,223.045135 
	C705.636353,224.783081 706.206421,225.941620 706.776489,227.100159 
	C706.836914,227.533844 706.897339,227.967514 707.125122,228.939041 
	C707.489990,229.738297 707.721497,229.964935 707.987061,230.156799 
	C708.438660,231.296783 708.890259,232.436768 709.617737,234.160645 
	C710.578308,236.183792 711.263062,237.623047 711.947754,239.062286 
	C711.947754,239.062302 711.951050,238.998505 711.965942,239.340942 
	C712.309631,240.463882 712.638428,241.244370 712.967224,242.024872 
z"/>
<path fill="#010000" opacity="1.000000" stroke="none" 
	d="
M519.573425,195.131439 
	C508.804047,194.291016 498.922943,196.048569 489.256195,199.688370 
	C487.620117,200.304413 484.873413,199.912201 483.457794,198.872299 
	C469.184662,188.387985 453.507599,182.460632 435.588013,182.850769 
	C433.717102,182.891510 431.380188,181.689575 429.990936,180.321457 
	C422.627716,173.070114 415.506927,165.630219 405.812195,161.281372 
	C402.517334,159.803375 402.625366,156.901794 406.230560,155.642319 
	C412.628601,153.407181 419.259094,150.756699 425.877838,150.501999 
	C434.549622,150.168320 443.401093,151.470261 451.989014,153.069092 
	C457.592773,154.112350 462.383575,157.488785 464.697876,163.324890 
	C465.033234,164.170593 465.859070,164.821838 467.514587,166.870926 
	C468.198151,163.589142 468.329865,161.410583 469.122009,159.506836 
	C470.389191,156.461380 471.351349,152.619537 473.731598,150.811920 
	C493.923737,135.477585 516.012573,134.794083 538.925171,143.613373 
	C543.373657,145.325638 547.362122,148.206635 551.636658,150.404816 
	C556.129578,152.715256 558.206482,156.274796 558.018372,161.313690 
	C557.973022,162.527390 558.492310,163.762146 558.855652,165.476562 
	C560.159546,164.693649 561.293213,164.413025 561.692139,163.713425 
	C567.680786,153.211060 578.108521,151.277649 588.625610,150.258850 
	C599.553101,149.200272 610.112427,151.701035 620.222839,155.856674 
	C621.577576,156.413498 622.550476,157.899384 623.700195,158.955048 
	C622.577393,160.032272 621.638428,161.512848 620.302185,162.121826 
	C611.056335,166.335556 603.232727,172.235046 596.696655,180.091949 
	C595.217834,181.869553 591.821289,182.915894 589.343628,182.853821 
	C576.249390,182.525864 563.796875,184.792908 552.226013,191.022125 
	C549.028809,192.743332 546.063477,194.960312 543.194580,197.208618 
	C540.162964,199.584473 537.277405,200.117554 533.513000,198.707092 
	C529.185181,197.085495 524.537415,196.317871 519.573425,195.131439 
z"/>
<path fill="#401A0F" opacity="1.000000" stroke="none" 
	d="
M450.292908,242.009415 
	C450.508942,240.499481 451.074524,239.033737 451.836426,237.295837 
	C453.506714,238.684387 454.980682,240.345078 456.454651,242.005768 
	C456.343597,242.370438 456.232574,242.735107 456.121521,243.099777 
	C454.295166,242.751053 452.468811,242.402328 450.292908,242.009415 
z"/>
<path fill="#401A0F" opacity="1.000000" stroke="none" 
	d="
M567.236938,267.624634 
	C566.047180,263.901917 565.020081,259.862274 563.969849,255.419800 
	C568.095581,258.271667 567.281555,262.920593 567.236938,267.624634 
z"/>
<path fill="#401A0F" opacity="1.000000" stroke="none" 
	d="
M370.619934,260.172119 
	C370.068390,262.489319 369.227814,264.953796 368.196808,267.710968 
	C363.755066,263.921753 368.689514,262.618713 370.619934,260.172119 
z"/>
<path fill="#401A0F" opacity="1.000000" stroke="none" 
	d="
M707.057861,226.964478 
	C706.206421,225.941620 705.636353,224.783081 704.997009,223.302536 
	C706.553528,223.748215 709.818726,223.488541 707.057861,226.964478 
z"/>
<path fill="#401A0F" opacity="1.000000" stroke="none" 
	d="
M319.763794,220.043671 
	C319.592865,221.243622 319.071716,222.451508 318.325867,223.901428 
	C316.207550,222.031799 315.659912,220.351852 319.763794,220.043671 
z"/>
<path fill="#401A0F" opacity="1.000000" stroke="none" 
	d="
M357.492981,277.436279 
	C356.826202,276.991608 356.388031,276.480591 355.949860,275.969604 
	C356.368195,275.829529 356.786560,275.689453 357.204895,275.549377 
	C357.377106,276.156219 357.549347,276.763062 357.492981,277.436279 
z"/>
<path fill="#401A0F" opacity="1.000000" stroke="none" 
	d="
M353.157440,267.901520 
	C353.198608,266.631042 353.539062,265.200409 353.989319,263.423584 
	C353.884979,264.632050 353.670837,266.186707 353.157440,267.901520 
z"/>
<path fill="#401A0F" opacity="1.000000" stroke="none" 
	d="
M719.254272,259.744843 
	C718.720459,258.863251 718.366943,257.772034 717.981934,256.334900 
	C718.445068,257.171051 718.939819,258.353149 719.254272,259.744843 
z"/>
<path fill="#401A0F" opacity="1.000000" stroke="none" 
	d="
M711.953735,238.676392 
	C711.263062,237.623047 710.578308,236.183792 709.807495,234.403854 
	C710.467468,235.472260 711.213562,236.881378 711.953735,238.676392 
z"/>
<path fill="#401A0F" opacity="1.000000" stroke="none" 
	d="
M724.195068,256.075897 
	C724.030945,256.613556 723.728271,257.001007 723.425659,257.388489 
	C723.235352,257.188141 723.045044,256.987793 722.854736,256.787415 
	C723.255310,256.500183 723.655884,256.212952 724.195068,256.075897 
z"/>
<path fill="#401A0F" opacity="1.000000" stroke="none" 
	d="
M372.613403,255.198700 
	C372.414215,256.212830 371.930298,257.396545 371.233124,258.824890 
	C371.456116,257.835785 371.892395,256.602051 372.613403,255.198700 
z"/>
<path fill="#401A0F" opacity="1.000000" stroke="none" 
	d="
M657.932312,267.697174 
	C657.344299,266.919464 656.753967,265.792908 656.124756,264.345398 
	C656.700623,265.132355 657.315308,266.240326 657.932312,267.697174 
z"/>
<path fill="#401A0F" opacity="1.000000" stroke="none" 
	d="
M713.111206,241.783081 
	C712.638428,241.244370 712.309631,240.463882 711.942871,239.363129 
	C712.355042,239.875687 712.805115,240.708496 713.111206,241.783081 
z"/>
<path fill="#401A0F" opacity="1.000000" stroke="none" 
	d="
M472.796936,230.163940 
	C472.584137,230.933807 472.069611,231.846298 471.301636,232.957214 
	C471.530518,232.205933 472.012878,231.256241 472.796936,230.163940 
z"/>
<path fill="#401A0F" opacity="1.000000" stroke="none" 
	d="
M563.946716,254.714325 
	C563.646851,254.246063 563.316284,253.449295 562.946289,252.325378 
	C563.243286,252.794098 563.579712,253.589935 563.946716,254.714325 
z"/>
<path fill="#401A0F" opacity="1.000000" stroke="none" 
	d="
M456.040497,229.769806 
	C456.090332,229.454132 456.338287,228.913910 456.784882,228.150452 
	C456.735229,228.466583 456.486938,229.005920 456.040497,229.769806 
z"/>
<path fill="#401A0F" opacity="1.000000" stroke="none" 
	d="
M449.173828,243.762253 
	C449.214752,243.464966 449.422211,242.936874 449.804749,242.181458 
	C449.766693,242.479889 449.553528,243.005661 449.173828,243.762253 
z"/>
<path fill="#401A0F" opacity="1.000000" stroke="none" 
	d="
M714.886414,246.886017 
	C714.669006,246.648651 714.381653,246.112625 714.034058,245.276505 
	C714.254639,245.513412 714.535522,246.050385 714.886414,246.886017 
z"/>
<path fill="#401A0F" opacity="1.000000" stroke="none" 
	d="
M715.906677,249.809692 
	C715.699829,249.587570 715.419434,249.086365 715.081909,248.302521 
	C715.294312,248.523468 715.563660,249.027039 715.906677,249.809692 
z"/>
<path fill="#401A0F" opacity="1.000000" stroke="none" 
	d="
M373.842407,252.231125 
	C373.799774,252.531876 373.586243,253.063660 373.191467,253.821381 
	C373.230682,253.518906 373.451111,252.990540 373.842407,252.231125 
z"/>
<path fill="#401A0F" opacity="1.000000" stroke="none" 
	d="
M364.873230,278.140533 
	C364.930420,278.044098 364.902557,278.467682 364.859680,278.674561 
	C364.730225,278.665070 364.729980,278.450226 364.873230,278.140533 
z"/>
<path fill="#401A0F" opacity="1.000000" stroke="none" 
	d="
M351.158905,273.789276 
	C351.154388,273.663086 351.336578,273.298309 351.741394,272.719116 
	C351.757874,272.853363 351.551727,273.202026 351.158905,273.789276 
z"/>
<path fill="#401A0F" opacity="1.000000" stroke="none" 
	d="
M459.137421,224.829956 
	C459.162842,224.736710 459.376312,224.474472 459.793213,224.058105 
	C459.772949,224.156326 459.549194,224.408646 459.137421,224.829956 
z"/>
<path fill="#401A0F" opacity="1.000000" stroke="none" 
	d="
M446.063049,252.890991 
	C445.999084,253.000504 446.025757,252.526962 446.056091,252.292328 
	C446.206757,252.295212 446.220276,252.536469 446.063049,252.890991 
z"/>
<path fill="#401A0F" opacity="1.000000" stroke="none" 
	d="
M707.848633,229.959015 
	C707.721497,229.964935 707.489990,229.738297 707.179626,229.262909 
	C707.301270,229.268341 707.515747,229.505783 707.848633,229.959015 
z"/>
<path fill="#401A0F" opacity="1.000000" stroke="none" 
	d="
M454.161713,232.832855 
	C454.179474,232.733307 454.380280,232.447266 454.782379,231.988892 
	C454.770721,232.093155 454.557739,232.369766 454.161713,232.832855 
z"/>
<path fill="#401A0F" opacity="1.000000" stroke="none" 
	d="
M453.149719,234.794464 
	C453.162140,234.686752 453.363892,234.374619 453.765015,233.860718 
	C453.755920,233.969299 453.547485,234.279678 453.149719,234.794464 
z"/>
<path fill="#401A0F" opacity="1.000000" stroke="none" 
	d="
M365.192261,235.794342 
	C365.203705,235.691391 365.393768,235.394501 365.778229,234.912247 
	C365.772034,235.018051 365.571442,235.309235 365.192261,235.794342 
z"/>
<path fill="#401A0F" opacity="1.000000" stroke="none" 
	d="
M364.193848,237.790344 
	C364.204529,237.686813 364.393738,237.387009 364.776367,236.898102 
	C364.770660,237.004044 364.571533,237.299057 364.193848,237.790344 
z"/>
<path fill="#401A0F" opacity="1.000000" stroke="none" 
	d="
M574.807922,242.219437 
	C574.838379,242.106735 574.932861,242.544052 574.958008,242.766174 
	C574.828003,242.794403 574.759460,242.575684 574.807922,242.219437 
z"/>
<path fill="#401A0F" opacity="1.000000" stroke="none" 
	d="
M464.815002,244.204498 
	C464.806030,244.310944 464.616852,244.619720 464.231689,245.123459 
	C464.235413,245.014557 464.435120,244.710693 464.815002,244.204498 
z"/>
<path fill="#010000" opacity="1.000000" stroke="none" 
	d="
M507.059570,854.998291 
	C507.065613,844.522522 507.181091,834.544495 507.027435,824.570618 
	C506.962555,820.359863 508.262207,818.433838 512.820923,818.881775 
	C519.902832,819.577698 527.207092,819.006775 534.093933,820.481628 
	C547.851379,823.428040 555.088928,838.553040 552.117554,850.438782 
	C547.718384,868.035706 541.453064,873.883484 523.212830,874.996765 
	C519.169678,875.243591 515.015625,875.152710 511.037292,874.480103 
	C508.226715,874.005005 506.872406,871.640503 507.026794,868.464417 
	C507.236420,864.151855 507.067017,859.820862 507.059570,854.998291 
z"/>
<path fill="#010000" opacity="1.000000" stroke="none" 
	d="
M721.944580,851.586975 
	C718.140259,873.048889 696.225525,882.856934 679.050354,872.802734 
	C665.125122,864.651123 660.846191,848.522461 668.047913,832.599670 
	C674.073547,819.277222 691.481689,813.127014 705.105164,819.412109 
	C715.370178,824.147766 721.706604,832.263611 721.953064,844.159729 
	C722.001282,846.485901 721.962769,848.813904 721.944580,851.586975 
z"/>
</svg>